<?xml version="1.0" standalone="no"?>
<!DOCTYPE svg PUBLIC "-//W3C//DTD SVG 20010904//EN"
 "http://www.w3.org/TR/2001/REC-SVG-20010904/DTD/svg10.dtd">
<svg version="1.0" xmlns="http://www.w3.org/2000/svg"
 width="346.000000pt" height="333.000000pt" viewBox="0 0 346.000000 333.000000"
 preserveAspectRatio="xMidYMid meet">

<g transform="translate(0.000000,333.000000) scale(0.100000,-0.100000)"
fill="#000000" stroke="none">
<path d="M1399 3260 c-638 -113 -1136 -591 -1291 -1240 -20 -84 -22 -121 -23
-330 0 -260 7 -314 71 -509 155 -472 543 -860 1015 -1015 195 -64 249 -71 509
-71 209 1 246 3 330 23 576 138 1014 538 1189 1086 56 174 74 314 68 521 -5
179 -16 257 -57 402 -125 447 -480 847 -912 1030 -117 49 -262 90 -382 108
-143 21 -381 19 -517 -5z m351 -856 c116 -27 205 -79 300 -174 94 -93 145
-180 175 -298 20 -81 21 -238 0 -317 -17 -63 -62 -166 -88 -200 -15 -19 -9
-27 129 -166 143 -145 144 -146 144 -191 0 -39 -5 -50 -31 -72 -21 -18 -42
-26 -70 -26 -37 0 -46 7 -183 146 l-144 147 -31 -22 c-44 -32 -147 -76 -211
-91 -70 -17 -219 -17 -290 -1 -77 18 -206 82 -267 133 -105 88 -185 213 -218
343 -20 79 -20 236 0 317 59 229 248 418 475 473 75 18 231 18 310 -1z"/>
<path d="M1458 2201 c-380 -122 -420 -651 -64 -827 329 -161 694 103 644 466
-23 169 -157 322 -320 366 -73 19 -191 17 -260 -5z"/>
</g>
</svg>
