<?xml version="1.0" standalone="no"?>
<!DOCTYPE svg PUBLIC "-//W3C//DTD SVG 20010904//EN"
 "http://www.w3.org/TR/2001/REC-SVG-20010904/DTD/svg10.dtd">
<svg version="1.0" xmlns="http://www.w3.org/2000/svg"
 width="920.000000pt" height="980.000000pt" viewBox="0 0 920.000000 980.000000"
 preserveAspectRatio="xMidYMid meet">

<g transform="translate(0.000000,980.000000) scale(0.100000,-0.100000)"
fill="#000000" stroke="none">
<path d="M4357 9790 c-477 -43 -919 -214 -1277 -493 -87 -68 -276 -254 -357
-349 -153 -184 -320 -474 -406 -708 -79 -216 -136 -477 -156 -713 -6 -74 -11
-397 -11 -768 l0 -639 -220 0 c-175 0 -239 -4 -317 -19 -252 -49 -457 -161
-643 -351 -194 -197 -304 -424 -340 -700 -8 -60 -10 -664 -8 -2045 l4 -1960
22 -88 c40 -163 112 -319 210 -457 186 -262 516 -452 847 -490 124 -14 5666
-14 5790 0 273 31 529 155 725 350 184 185 304 418 345 673 23 141 22 3931 0
4063 -68 392 -312 724 -660 897 -205 102 -330 127 -636 127 l-219 0 0 634 c0
348 -5 690 -10 761 -60 734 -395 1371 -940 1789 -325 249 -696 403 -1123 467
-153 22 -471 32 -620 19z m414 -610 c244 -24 447 -79 647 -175 487 -234 824
-658 961 -1210 52 -211 54 -244 58 -982 l4 -693 -1841 0 -1841 0 4 693 c4 755
5 776 67 1013 121 467 379 836 760 1082 325 211 767 313 1181 272z m2788
-3699 c84 -31 200 -110 255 -173 50 -57 95 -136 129 -225 l22 -58 3 -1930 c3
-2148 7 -2001 -65 -2148 -51 -101 -171 -221 -273 -271 -145 -71 87 -66 -3030
-66 -3118 0 -2883 -5 -3029 67 -107 53 -224 170 -275 275 -70 145 -66 11 -66
2108 0 2072 -3 1965 58 2094 80 168 238 299 417 342 39 10 677 12 2920 11
l2870 -2 64 -24z"/>
<path d="M4514 4280 c-210 -32 -385 -166 -474 -363 -113 -251 -31 -567 189
-727 l61 -45 0 -490 c0 -490 6 -588 36 -647 26 -50 85 -108 138 -136 44 -23
63 -27 136 -27 73 0 92 4 136 27 63 33 126 103 150 166 17 43 19 98 22 577 l4
530 50 35 c66 46 141 136 183 221 143 283 45 625 -227 796 -104 66 -282 103
-404 83z"/>
</g>
</svg>
