<?xml version="1.0" standalone="no"?>
<!DOCTYPE svg PUBLIC "-//W3C//DTD SVG 20010904//EN"
 "http://www.w3.org/TR/2001/REC-SVG-20010904/DTD/svg10.dtd">
<svg version="1.0" xmlns="http://www.w3.org/2000/svg"
 width="474.000000pt" height="455.000000pt" viewBox="0 0 474.000000 455.000000"
 preserveAspectRatio="xMidYMid meet">

<g transform="translate(0.000000,455.000000) scale(0.100000,-0.100000)"
fill="#000000" stroke="none">
<path d="M1740 4542 c0 -4 -39 -13 -87 -20 -598 -81 -1155 -478 -1432 -1021
-99 -195 -180 -448 -196 -619 -4 -39 -12 -72 -16 -72 -5 0 -9 -90 -9 -200 0
-110 4 -200 8 -200 4 0 13 -41 20 -92 53 -385 236 -757 517 -1046 304 -315
626 -486 1080 -573 48 -10 151 -14 325 -14 239 0 263 2 380 27 262 57 494 153
697 289 39 27 75 50 80 51 10 3 132 -107 563 -508 482 -448 525 -486 583 -510
26 -10 47 -22 47 -26 0 -10 177 -10 182 0 2 4 27 18 56 31 65 30 141 109 168
173 10 27 22 48 27 48 9 0 9 177 0 182 -5 1 -19 27 -33 57 -25 54 -138 163
-840 810 -69 64 -159 148 -200 188 l-75 73 19 32 c147 258 235 520 267 798 15
131 7 412 -16 535 -75 416 -268 783 -554 1058 -220 211 -457 356 -730 448
-125 41 -331 89 -388 89 -18 0 -33 5 -33 10 0 6 -75 10 -205 10 -113 0 -205
-4 -205 -8z m443 -706 c423 -81 792 -401 941 -814 89 -250 89 -574 0 -824 -83
-230 -241 -442 -444 -594 -339 -254 -798 -314 -1196 -154 -399 159 -682 499
-768 922 -81 398 50 824 347 1120 182 182 410 301 667 349 120 22 324 19 453
-5z"/>
</g>
</svg>
